<?xml version="1.0" encoding="UTF-8"?>
<!DOCTYPE svg PUBLIC "-//W3C//DTD SVG 1.1//EN" "http://www.w3.org/Graphics/SVG/1.1/DTD/svg11.dtd">
<svg xmlns="http://www.w3.org/2000/svg" version="1.1" width="225px" height="300px" style="shape-rendering:geometricPrecision; text-rendering:geometricPrecision; image-rendering:optimizeQuality; fill-rule:evenodd; clip-rule:evenodd" xmlns:xlink="http://www.w3.org/1999/xlink">
<g><path style="opacity:1" fill="#000000" d="M -0.5,-0.5 C 74.5,-0.5 149.5,-0.5 224.5,-0.5C 224.5,99.5 224.5,199.5 224.5,299.5C 149.5,299.5 74.5,299.5 -0.5,299.5C -0.5,199.5 -0.5,99.5 -0.5,-0.5 Z"/></g>
<g><path style="opacity:1" fill="#fefefe" d="M 149.5,104.5 C 144.5,104.5 139.5,104.5 134.5,104.5C 134.5,139.5 134.5,174.5 134.5,209.5C 129.5,209.5 124.5,209.5 119.5,209.5C 119.5,214.5 119.5,219.5 119.5,224.5C 104.5,224.5 89.5,224.5 74.5,224.5C 74.5,214.5 74.5,204.5 74.5,194.5C 79.5,194.5 84.5,194.5 89.5,194.5C 89.5,189.5 89.5,184.5 89.5,179.5C 99.5,179.5 109.5,179.5 119.5,179.5C 119.5,139.5 119.5,99.5 119.5,59.5C 124.5,59.5 129.5,59.5 134.5,59.5C 134.5,64.5 134.5,69.5 134.5,74.5C 139.5,74.5 144.5,74.5 149.5,74.5C 149.5,84.5 149.5,94.5 149.5,104.5 Z"/></g>
<g><path style="opacity:1" fill="#fefefe" d="M 149.5,104.5 C 154.5,104.5 159.5,104.5 164.5,104.5C 164.5,109.5 164.5,114.5 164.5,119.5C 164.5,114.5 164.5,109.5 164.5,104.5C 159.5,104.5 154.5,104.5 149.5,104.5 Z"/></g>
<g><path style="opacity:1" fill="#fefffe" d="M 164.5,119.5 C 169.5,119.5 174.5,119.5 179.5,119.5C 179.5,129.5 179.5,139.5 179.5,149.5C 174.5,149.5 169.5,149.5 164.5,149.5C 164.5,139.5 164.5,129.5 164.5,119.5 Z"/></g>
<g><path style="opacity:1" fill="#fefffe" d="M 164.5,149.5 C 164.5,154.5 164.5,159.5 164.5,164.5C 159.5,164.5 154.5,164.5 149.5,164.5C 149.5,159.5 149.5,154.5 149.5,149.5C 154.5,149.5 159.5,149.5 164.5,149.5 Z"/></g>
</svg>
